<svg width="150" height="150" viewBox="0 0 150 150" fill="none" xmlns="http://www.w3.org/2000/svg">
<rect width="150" height="150" rx="10" fill="#2F80ED"/>
  <svg width="59" height="83" x = "45" y = "35" viewBox="0 0 59 83" fill="none" xmlns="http://www.w3.org/2000/svg">
    <path d="M57.6163 22.1047L37.2674 1.75582C36.686 1.17443 36.1046 0.883728 35.2325 0.883728H6.16277C2.9651 0.883728 0.348816 3.50001 0.348816 6.69768V76.4651C0.348816 79.6628 2.9651 82.2791 6.16277 82.2791H52.6744C55.8721 82.2791 58.4884 79.6628 58.4884 76.4651V24.1395C58.4884 23.2674 58.1977 22.6861 57.6163 22.1047ZM35.2325 7.86047L51.5116 24.1395H35.2325V7.86047ZM52.6744 76.4651H6.16277V6.69768H29.4186V24.1395C29.4186 27.3372 32.0349 29.9535 35.2325 29.9535H52.6744V76.4651Z" fill="#F8F8F8"/>
  </svg>
  <svg width="23" height="22" x = "120" y = "10" viewBox="0 0 23 22" fill="none" xmlns="http://www.w3.org/2000/svg">
<path d="M13.436 8.72673V0.00579834H9.07555V8.72673H0.354614V13.0872H9.07555V21.8081H13.436V13.0872H22.1569V8.72673H13.436Z" fill="#F8F8F8"/>
</svg>
<svg width="36" height="24" viewBox="0 0 36 24"  x = "55" y = "70" fill="none" xmlns="http://www.w3.org/2000/svg">
<path d="M0.976746 18.0232H35.8605V23.8372H0.976746V18.0232ZM0.976746 0.58139H35.8605V6.39534H0.976746V0.58139Z" fill="#F8F8F8"/>
</svg>


</svg>
