<svg width="150" height="150" viewBox="0 0 150 150" fill="none" xmlns="http://www.w3.org/2000/svg">
<rect x="1" y="1" width="148" height="148" rx="9" fill="#F8F8F8" stroke="#A3A3A3" stroke-width="2"/>
<svg width="12" height="12" viewBox="0 0 12 12" x = "120" y = "10" fill="none" xmlns="http://www.w3.org/2000/svg">
<path fill-rule="evenodd"  clip-rule="evenodd" d="M0.558333 0.558329C0.67552 0.441287 0.834374 0.375546 0.999999 0.375546C1.16562 0.375546 1.32448 0.441287 1.44167 0.558329L6 5.11666L10.5583 0.558329C10.6156 0.496923 10.6846 0.447671 10.7612 0.413511C10.8379 0.379351 10.9206 0.360983 11.0046 0.359503C11.0885 0.358022 11.1718 0.373459 11.2497 0.404893C11.3275 0.436327 11.3982 0.483115 11.4575 0.542464C11.5169 0.601813 11.5637 0.672507 11.5951 0.750331C11.6265 0.828154 11.642 0.911512 11.6405 0.995431C11.639 1.07935 11.6206 1.16211 11.5865 1.23878C11.5523 1.31544 11.5031 1.38444 11.4417 1.44166L6.88333 6L11.4417 10.5583C11.5031 10.6155 11.5523 10.6845 11.5865 10.7612C11.6206 10.8379 11.639 10.9206 11.6405 11.0046C11.642 11.0885 11.6265 11.1718 11.5951 11.2497C11.5637 11.3275 11.5169 11.3982 11.4575 11.4575C11.3982 11.5169 11.3275 11.5637 11.2497 11.5951C11.1718 11.6265 11.0885 11.642 11.0046 11.6405C10.9206 11.639 10.8379 11.6206 10.7612 11.5865C10.6846 11.5523 10.6156 11.5031 10.5583 11.4417L6 6.88333L1.44167 11.4417C1.32319 11.5521 1.16648 11.6122 1.00456 11.6093C0.842646 11.6065 0.688159 11.5409 0.573648 11.4263C0.459137 11.3118 0.393544 11.1573 0.390687 10.9954C0.38783 10.8335 0.447933 10.6768 0.558333 10.5583L5.11667 6L0.558333 1.44166C0.44129 1.32447 0.375549 1.16562 0.375549 0.999996C0.375549 0.83437 0.44129 0.675517 0.558333 0.558329Z" fill="#545454"/>
</svg>

</svg>
